<svg width="99" height="40" viewBox="0 0 99 40" fill="none" xmlns="http://www.w3.org/2000/svg">
<g clip-path="url(#clip0_107_59)">
<path d="M98.83 0H0V40H98.83V0Z" fill="white"/>
<path d="M9.66004 3.85986H20.41L27 26.1899H27.1L31.62 3.85986H39.74L32.91 36.0599H22.21L15.47 13.7799H15.38L10.91 36.0599H2.79004L9.66004 3.85986Z" fill="#005EB8"/>
<path d="M42.9105 3.85986H51.5405L49.0005 16.1799H59.2005L61.7405 3.85986H70.3705L63.6805 36.0599H55.0005L57.8605 22.2699H47.7105L44.8505 36.0599H36.2305L42.9105 3.85986Z" fill="#005EB8"/>
<path d="M93.0598 11.1498C90.8479 10.1315 88.4346 9.62558 85.9998 9.6698C82.5898 9.6698 79.8198 10.1798 79.8198 12.7598C79.8198 17.3298 92.3198 15.6198 92.3198 25.3998C92.3198 34.2998 84.0598 36.6098 76.5898 36.6098C73.1949 36.5309 69.8282 35.972 66.5898 34.9498L68.5898 28.3998C70.2998 29.5098 73.7098 30.2498 76.5198 30.2498C79.3298 30.2498 83.3898 29.7398 83.3898 26.4198C83.3898 21.2498 70.8898 23.1898 70.8898 14.0998C70.8898 5.7998 78.1798 3.2998 85.2398 3.2998C89.2398 3.2998 92.9398 3.7198 95.1098 4.7298L93.0598 11.1498Z" fill="#005EB8"/>
</g>
<defs>
<clipPath id="clip0_107_59">
<rect width="98.83" height="40" fill="white"/>
</clipPath>
</defs>
</svg>
