<svg xmlns="http://www.w3.org/2000/svg" viewBox="0 0 98.83 40"><defs><style>.a{fill:#005eb8;}.b{fill:#fff;}</style></defs><title>nhs-logo</title><rect class="a" width="98.83" height="40"/><path class="b" d="M9.66,3.86H20.41L27,26.19H27.1L31.62,3.86h8.12l-6.83,32.2H22.21L15.47,13.78H15.38L10.91,36.06H2.79Z" transform="translate(0)"/><path class="b" d="M42.91,3.86h8.63L49,16.18H59.2L61.74,3.86h8.63l-6.69,32.2H55l2.86-13.79H47.71L44.85,36.06H36.23Z" transform="translate(0)"/><path class="b" d="M93.06,11.15A16.18,16.18,0,0,0,86,9.67c-3.41,0-6.18.51-6.18,3.09,0,4.57,12.5,2.86,12.5,12.64,0,8.9-8.26,11.21-15.73,11.21a36,36,0,0,1-10-1.66l2-6.55c1.71,1.11,5.12,1.85,7.93,1.85s6.87-.51,6.87-3.83c0-5.17-12.5-3.23-12.5-12.32,0-8.3,7.29-10.8,14.35-10.8,4,0,7.7.42,9.87,1.43Z" transform="translate(0)"/></svg>